<svg fill="#000000" xmlns="http://www.w3.org/2000/svg" viewBox="0 0 64 64" width="60px" height="60px"><path d="M63.149,19.805C62.665,18.691,61.611,18,60.397,18H3c-1.654,0-3,1.346-3,3v26c0,1.654,1.346,3,3,3h32.262c1.382,0,2.714-0.579,3.655-1.588l23.674-25.365C63.419,22.159,63.633,20.917,63.149,19.805z M61.128,21.682L37.454,47.048C36.89,47.652,36.091,48,35.262,48H3c-0.552,0-1-0.448-1-1V21c0-0.552,0.448-1,1-1h57.397c0.608,0,0.855,0.46,0.917,0.602C61.376,20.742,61.544,21.237,61.128,21.682z"/><path d="M37.506 29.033h-.699v4.554h.651c1.044 0 1.839-.209 2.385-.627.546-.417.819-.988.819-1.711C40.662 29.772 39.61 29.033 37.506 29.033zM22.676 35.803l.091.043c.624.295 1.297.442 1.97.442.706 0 1.411-.162 2.059-.485l-2.048-6.77L22.676 35.803z"/><path d="M43.64 25.615c-.818-.563-1.786-.982-2.879-1.248-1.011-.245-2.114-.37-3.279-.37h-4.626c-1.105 0-2 .895-2 2v4.847l-2.065-5.545c-.292-.783-1.039-1.302-1.874-1.302H22.58c-.835 0-1.583.519-1.874 1.302l-2.818 7.567c-.087-.088-.178-.176-.274-.265-.33-.306-.696-.59-1.093-.851.247-.018.491-.082.719-.192.55-.264.949-.764 1.085-1.359L19 27.236c.197-.867-.202-1.761-.979-2.192-.733-.407-1.615-.736-2.623-.979-.985-.237-2.026-.357-3.094-.357-2.258 0-4.102.562-5.481 1.669-1.039.834-2.277 2.401-2.277 5.125 0 1.712.549 3.16 1.633 4.303.719.759 1.688 1.421 2.94 2.007-.383-.128-.734-.27-1.048-.423-.276-.134-.575-.201-.875-.201-.284 0-.569.061-.834.182-.544.249-.947.729-1.1 1.307L4.467 40.69c-.243.922.198 1.887 1.054 2.307.895.438 1.874.775 2.911 1.001 1.018.222 2.053.335 3.077.335 1.186 0 2.276-.172 3.241-.51.202-.071.398-.148.59-.23.353.288.799.452 1.266.452h4.072c.871 0 1.642-.564 1.906-1.394l.384-1.208c.592.17 1.204.256 1.821.256.59 0 1.173-.078 1.74-.233l.39 1.198c.268.823 1.036 1.381 1.902 1.381h4.036 3.951c1.105 0 2-.895 2-2v-3.51c.625-.072 1.228-.186 1.803-.343 1.104-.301 2.089-.753 2.926-1.342.899-.632 1.617-1.431 2.133-2.373.531-.971.8-2.064.8-3.25 0-1.221-.251-2.32-.746-3.265C45.225 27.012 44.524 26.224 43.64 25.615zM43.915 33.514c-.37.675-.879 1.241-1.53 1.698-.65.458-1.418.807-2.301 1.048-.884.241-1.839.361-2.867.361h-.41v5.421h-3.915-.036H28.82l-1.012-3.108-1.551.521c-.477.16-.973.24-1.469.24-.468 0-.936-.071-1.388-.214l-1.736-.548-.988 3.108h-4.072l.407-1.094c0 0 .192-.49-.271-.526-.022-.002-.042-.002-.062-.002-.301 0-.387.189-.665.429-.53.458-1.173.819-1.927 1.084-.755.265-1.614.397-2.578.397-.884 0-1.767-.096-2.65-.289C7.974 41.85 7.155 41.57 6.4 41.2l.795-3.012c.562.273 1.196.51 1.904.711.707.201 1.47.301 2.289.301.675 0 1.229-.124 1.663-.374.434-.249.651-.654.651-1.217 0-.401-.189-.767-.566-1.096-.378-.329-1.064-.678-2.06-1.048C9.5 34.872 8.352 34.193 7.629 33.43c-.723-.763-1.084-1.739-1.084-2.927 0-1.558.51-2.747 1.53-3.566 1.02-.819 2.429-1.229 4.229-1.229.915 0 1.791.1 2.626.301.835.201 1.542.462 2.12.783l-.675 2.964c-.562-.273-1.177-.494-1.843-.663-.667-.169-1.353-.253-2.06-.253-.594 0-1.072.101-1.434.301-.361.201-.542.542-.542 1.024 0 .225.032.418.096.578.064.161.181.313.349.458.169.145.405.289.711.434.305.145.69.313 1.156.506.675.273 1.309.562 1.904.867.594.305 1.108.659 1.542 1.06.434.402.811.844 1.024 1.373.174.434.018 1.043.643 1.199.066.014.127.02.184.02.554 0 .721-.587.721-.587l3.752-10.077h4.337l5.939 15.949V25.997h4.626c1.012 0 1.947.105 2.807.313.859.209 1.598.526 2.217.952.618.426 1.1.968 1.446 1.626.345.659.518 1.438.518 2.337C44.469 32.077 44.284 32.839 43.915 33.514zM7 16c.553 0 1-.447 1-1v-2c0-.553-.447-1-1-1s-1 .447-1 1v2C6 15.553 6.447 16 7 16zM2 16c.553 0 1-.447 1-1v-2c0-.553-.447-1-1-1s-1 .447-1 1v2C1 15.553 1.447 16 2 16zM22 16c.553 0 1-.447 1-1v-2c0-.553-.447-1-1-1s-1 .447-1 1v2C21 15.553 21.447 16 22 16zM27 16c.553 0 1-.447 1-1v-2c0-.553-.447-1-1-1s-1 .447-1 1v2C26 15.553 26.447 16 27 16zM32 16c.553 0 1-.447 1-1v-2c0-.553-.447-1-1-1s-1 .447-1 1v2C31 15.553 31.447 16 32 16zM37 16c.553 0 1-.447 1-1v-2c0-.553-.447-1-1-1s-1 .447-1 1v2C36 15.553 36.447 16 37 16zM42 16c.553 0 1-.447 1-1v-2c0-.553-.447-1-1-1s-1 .447-1 1v2C41 15.553 41.447 16 42 16zM47 16c.553 0 1-.447 1-1v-2c0-.553-.447-1-1-1s-1 .447-1 1v2C46 15.553 46.447 16 47 16zM52 16c.553 0 1-.447 1-1v-2c0-.553-.447-1-1-1s-1 .447-1 1v2C51 15.553 51.447 16 52 16zM57 16c.553 0 1-.447 1-1v-2c0-.553-.447-1-1-1s-1 .447-1 1v2C56 15.553 56.447 16 57 16zM62 16c.553 0 1-.447 1-1v-2c0-.553-.447-1-1-1s-1 .447-1 1v2C61 15.553 61.447 16 62 16zM12 16c.553 0 1-.447 1-1v-2c0-.553-.447-1-1-1s-1 .447-1 1v2C11 15.553 11.447 16 12 16zM17 16c.553 0 1-.447 1-1v-2c0-.553-.447-1-1-1s-1 .447-1 1v2C16 15.553 16.447 16 17 16z"/></svg>