<?xml version="1.0" encoding="UTF-8"?>
<svg xmlns="http://www.w3.org/2000/svg" xmlns:xlink="http://www.w3.org/1999/xlink" width="225pt" height="300pt" viewBox="0 0 225 300" version="1.1">
<g id="surface1">
<path style="fill-rule:evenodd;fill:rgb(100%,100%,100%);fill-opacity:1;stroke-width:1.02;stroke-linecap:butt;stroke-linejoin:miter;stroke:rgb(89.803922%,89.803922%,89.803922%);stroke-opacity:1;stroke-miterlimit:4;" d="M 47.498732 23.999237 C 47.498732 36.978193 36.978193 47.498732 23.999237 47.498732 C 11.020281 47.498732 0.499742 36.978193 0.499742 23.999237 C 0.499742 11.020281 11.020281 0.499742 23.999237 0.499742 C 36.978193 0.499742 47.498732 11.020281 47.498732 23.999237 Z M 47.498732 23.999237 " transform="matrix(1.472937,0,0,1.472937,-29.458745,8.041255)"/>
<path style=" stroke:none;fill-rule:evenodd;fill:rgb(100%,100%,100%);fill-opacity:1;" d="M -29.457031 8.042969 L 254.457031 8.042969 L 254.457031 291.957031 L -29.457031 291.957031 Z M -29.457031 8.042969 "/>
<path style=" stroke:none;fill-rule:evenodd;fill:rgb(12.54902%,14.117647%,40.392157%);fill-opacity:1;" d="M 58.765625 193.320312 C 54.417969 187.507812 50.402344 181.753906 47.113281 175.445312 L 47.113281 219.503906 L 93.703125 219.503906 C 71.46875 209.066406 58.9375 193.546875 58.765625 193.320312 Z M 47.113281 20.566406 L 47.113281 108.6875 C 57.808594 89.714844 76.945312 79.097656 92.03125 78.316406 C 119.84375 76.875 129.351562 94.457031 132.148438 102.078125 C 135.667969 111.6875 134.472656 121.871094 128.941406 129.3125 C 124.289062 135.574219 117.1875 138.910156 109.464844 138.457031 C 99.789062 137.886719 95.480469 131.121094 95.574219 125.082031 C 95.664062 119.34375 99.726562 113.425781 107.316406 113.214844 L 109.617188 113.113281 L 109.617188 120.875 L 107.53125 120.984375 C 104.488281 121.066406 103.371094 123.308594 103.34375 125.207031 C 103.304688 127.675781 105.011719 130.414062 109.921875 130.703125 C 115.058594 131.003906 119.597656 128.863281 122.707031 124.683594 C 126.667969 119.347656 127.472656 111.898438 124.851562 104.753906 C 122.117188 97.292969 114.265625 84.941406 92.433594 86.070312 C 74.71875 86.992188 50.535156 103.910156 47.113281 133.613281 L 47.113281 148.800781 C 48.875 165.703125 56.261719 176.996094 64.988281 188.667969 C 65.191406 188.941406 85.394531 213.214844 118.808594 219.507812 L 171.523438 219.507812 L 171.523438 20.566406 Z M 47.113281 20.566406 "/>
<path style=" stroke:none;fill-rule:evenodd;fill:rgb(100%,100%,100%);fill-opacity:1;" d="M 137.496094 85.035156 L 143.996094 85.035156 C 148.546875 85.035156 150.328125 87.945312 150.328125 92.164062 C 150.328125 94.953125 149.070312 97.621094 146.695312 98.339844 L 146.695312 98.417969 C 149.601562 99.09375 151.085938 101.800781 151.085938 105.507812 C 151.085938 110.488281 148.414062 113.472656 143.960938 113.472656 L 137.496094 113.472656 Z M 139.605469 97.539062 L 142.9375 97.539062 C 146.566406 97.539062 148.21875 95.671875 148.21875 92.367188 C 148.21875 88.578125 146.601562 87.183594 143.300781 87.183594 L 139.605469 87.183594 Z M 139.605469 111.324219 L 143.53125 111.324219 C 147.191406 111.324219 148.972656 109.332031 148.972656 105.511719 C 148.972656 101.683594 147.191406 99.691406 143.53125 99.691406 L 139.605469 99.691406 Z M 157.757812 102.082031 L 151.390625 85.035156 L 153.632812 85.035156 L 158.8125 99.214844 L 163.992188 85.035156 L 166.234375 85.035156 L 159.867188 102.082031 L 159.867188 113.476562 L 157.757812 113.476562 Z M 52.523438 41.117188 L 58.890625 41.117188 C 63.441406 41.117188 65.355469 44.34375 65.355469 49.160156 C 65.355469 53.542969 63.539062 57.207031 58.164062 57.207031 L 54.632812 57.207031 L 54.632812 69.554688 L 52.523438 69.554688 Z M 54.632812 55.054688 L 58.230469 55.054688 C 61.03125 55.054688 63.246094 53.542969 63.246094 49.160156 C 63.246094 44.898438 61.460938 43.265625 58.230469 43.265625 L 54.632812 43.265625 Z M 75.027344 40.636719 C 79.84375 40.636719 82.546875 45.136719 82.546875 55.335938 C 82.546875 65.53125 79.84375 70.035156 75.027344 70.035156 C 70.210938 70.035156 67.503906 65.53125 67.503906 55.335938 C 67.503906 45.136719 70.210938 40.636719 75.027344 40.636719 Z M 75.027344 67.882812 C 78.390625 67.882812 80.4375 64.535156 80.4375 55.335938 C 80.4375 46.132812 78.390625 42.785156 75.027344 42.785156 C 71.660156 42.785156 69.617188 46.132812 69.617188 55.335938 C 69.617188 64.535156 71.660156 67.882812 75.027344 67.882812 Z M 83.90625 41.117188 L 86.019531 41.117188 L 90.140625 66.132812 L 90.207031 66.132812 L 94.230469 41.117188 L 96.671875 41.117188 L 100.699219 66.132812 L 100.761719 66.132812 L 104.886719 41.117188 L 106.996094 41.117188 L 102.015625 69.554688 L 99.378906 69.554688 L 95.484375 44.542969 L 95.417969 44.542969 L 91.523438 69.554688 L 88.886719 69.554688 Z M 110.136719 41.15625 L 119.59375 41.15625 L 119.59375 43.304688 L 111.847656 43.304688 L 111.847656 53.664062 L 119.089844 53.664062 L 119.089844 55.8125 L 111.847656 55.8125 L 111.847656 67.445312 L 119.832031 67.445312 L 119.832031 69.597656 L 110.136719 69.597656 Z M 122.539062 41.117188 L 129.570312 41.117188 C 133.492188 41.117188 135.671875 43.824219 135.671875 48.246094 C 135.671875 51.671875 134.546875 54.742188 131.414062 55.457031 L 131.414062 55.535156 C 134.347656 55.855469 135.339844 57.886719 135.441406 62.269531 L 135.503906 65.375 C 135.535156 66.929688 135.667969 68.445312 136.496094 69.558594 L 134.019531 69.558594 C 133.527344 68.5625 133.425781 67.085938 133.394531 65.574219 L 133.328125 63.183594 C 133.199219 58.167969 132.4375 56.574219 128.644531 56.574219 L 124.648438 56.574219 L 124.648438 69.558594 L 122.539062 69.558594 Z M 124.652344 54.417969 L 128.285156 54.417969 C 131.617188 54.417969 133.558594 52.585938 133.558594 48.84375 C 133.558594 45.378906 132.339844 43.265625 128.515625 43.265625 L 124.652344 43.265625 Z M 152.371094 41.117188 L 158.046875 41.117188 C 164.910156 41.117188 166.589844 46.054688 166.589844 55.335938 C 166.589844 64.617188 164.910156 69.558594 158.046875 69.558594 L 152.371094 69.558594 Z M 154.484375 67.40625 L 157.914062 67.40625 C 162.53125 67.40625 164.476562 64.617188 164.476562 55.375 C 164.476562 46.054688 162.53125 43.265625 157.914062 43.265625 L 154.484375 43.265625 Z M 139.914062 41.050781 L 149.371094 41.050781 L 149.371094 43.199219 L 141.621094 43.199219 L 141.621094 53.554688 L 148.859375 53.554688 L 148.859375 55.707031 L 141.621094 55.707031 L 141.621094 67.339844 L 149.613281 67.339844 L 149.613281 69.488281 L 139.914062 69.488281 Z M 139.914062 41.050781 "/>
<path style=" stroke:none;fill-rule:evenodd;fill:rgb(0%,42.352941%,51.372549%);fill-opacity:1;" d="M 22.785156 264.925781 C 24.222656 268.402344 28.453125 277.394531 36.761719 277.394531 C 42.503906 277.394531 46.207031 273.996094 46.207031 267.722656 C 46.207031 260.089844 40.085938 257.675781 36.007812 255.558594 C 33.0625 254.050781 23.542969 250.570312 23.542969 241.886719 C 23.542969 234.558594 29.058594 228.058594 38.878906 228.058594 C 43.183594 228.058594 45.675781 229.265625 47.945312 229.796875 C 48.246094 232.441406 48.703125 235.460938 49.304688 240.070312 L 48.167969 240.300781 C 46.507812 235.691406 44.238281 229.875 37.214844 229.875 C 31.394531 229.875 28.75 233.800781 28.75 238.5625 C 28.75 244.152344 33.058594 246.875 38.800781 249.515625 C 44.390625 252.007812 51.644531 255.257812 51.644531 264.246094 C 51.644531 272.710938 44.542969 279.285156 35.023438 279.433594 C 32.300781 279.285156 29.734375 278.753906 27.917969 278.152344 C 26.03125 277.546875 24.746094 276.945312 23.914062 276.5625 C 23.238281 274.597656 22.40625 269.234375 21.648438 265.230469 Z M 22.785156 264.925781 "/>
<path style=" stroke:none;fill-rule:evenodd;fill:rgb(0%,42.352941%,51.372549%);fill-opacity:1;" d="M 68.148438 269.707031 C 68.148438 276.105469 68.621094 276.816406 74.308594 277.472656 L 74.308594 278.300781 L 57.425781 278.300781 L 57.425781 277.472656 C 62.875 276.820312 63.347656 276.105469 63.347656 269.707031 L 63.347656 263.015625 C 63.347656 262.066406 63.113281 261.355469 61.804688 259.164062 C 60.386719 256.730469 58.191406 252.644531 54.519531 246.128906 C 52.03125 241.742188 51.734375 241.269531 48.296875 240.613281 L 48.296875 239.789062 L 62.339844 239.789062 L 62.339844 240.613281 L 59.554688 241.210938 C 58.132812 241.507812 57.898438 241.921875 58.785156 244.113281 C 59.316406 245.417969 64.589844 254.957031 67.316406 259.457031 C 69.507812 255.371094 73.300781 248.199219 74.78125 244.527344 C 75.730469 242.21875 75.257812 241.445312 73.0625 241.03125 L 70.574219 240.613281 L 70.574219 239.789062 L 83.257812 239.789062 L 83.257812 240.613281 C 79.40625 241.269531 78.929688 242.21875 76.382812 246.128906 C 74.1875 249.503906 72.058594 253.589844 69.332031 258.6875 C 68.203125 260.761719 68.144531 261.414062 68.144531 262.359375 L 68.144531 269.707031 Z M 68.148438 269.707031 "/>
<path style=" stroke:none;fill-rule:evenodd;fill:rgb(0%,42.352941%,51.372549%);fill-opacity:1;" d="M 97.121094 239.789062 C 101.09375 239.789062 103.816406 240.5 105.773438 241.863281 C 107.789062 243.285156 108.855469 245.417969 108.855469 248.378906 C 108.855469 253.59375 103.9375 256.144531 101.03125 256.851562 L 101.03125 256.96875 C 106.484375 257.738281 111.34375 260.941406 111.34375 266.925781 C 111.34375 271.132812 109.269531 274.09375 105.832031 276.050781 C 102.871094 277.707031 99.078125 278.300781 94.515625 278.300781 L 81.304688 278.300781 L 81.304688 277.472656 C 86.28125 276.820312 86.757812 276.105469 86.757812 269.707031 L 86.757812 248.378906 C 86.695312 241.980469 86.339844 241.269531 81.660156 240.617188 L 81.660156 239.789062 Z M 91.375 256.796875 L 95.109375 256.796875 C 100.796875 256.796875 103.640625 254.1875 103.640625 249.03125 C 103.640625 245.476562 102.160156 240.972656 95.167969 240.972656 C 93.214844 240.972656 92.382812 241.03125 91.910156 241.269531 C 91.554688 241.445312 91.375 241.679688 91.375 242.867188 Z M 91.375 257.976562 L 91.375 271.191406 C 91.375 275.871094 92.144531 277 96.472656 277 C 101.507812 277 105.714844 274.210938 105.714844 267.695312 C 105.714844 261.121094 101.03125 257.976562 94.8125 257.976562 Z M 108.375 278.300781 L 108.375 277.472656 C 112.226562 276.523438 112.9375 276.105469 115.1875 270.363281 L 127.335938 239.136719 L 128.105469 238.898438 L 132.488281 250.21875 C 135.390625 257.683594 137.996094 265.207031 140.371094 271.25 C 142.265625 276.109375 143.035156 276.582031 146.710938 277.472656 L 146.710938 278.304688 L 132.546875 278.304688 L 132.546875 277.472656 L 134.507812 276.941406 C 136.636719 276.40625 136.8125 275.816406 136.28125 273.976562 C 135.867188 272.554688 134.148438 267.933594 132.429688 263.375 L 119.753906 263.375 C 119.042969 265.207031 117.5625 269.828125 116.96875 272.199219 C 116.082031 275.753906 116.609375 276.464844 119.808594 277.175781 L 121.054688 277.472656 L 121.054688 278.304688 L 108.375 278.304688 Z M 120.34375 261.59375 L 131.777344 261.59375 L 126.089844 246.480469 L 125.972656 246.480469 Z M 145.585938 267.8125 C 146.710938 270.539062 150.03125 277.589844 156.546875 277.589844 C 161.046875 277.589844 163.953125 274.921875 163.953125 270.007812 C 163.953125 264.023438 159.152344 262.125 155.953125 260.464844 C 153.640625 259.28125 146.175781 256.558594 146.175781 249.746094 C 146.175781 243.996094 150.5 238.898438 158.203125 238.898438 C 161.582031 238.898438 163.535156 239.847656 165.3125 240.265625 C 165.550781 242.335938 165.902344 244.707031 166.378906 248.320312 L 165.488281 248.496094 C 164.183594 244.882812 162.410156 240.324219 156.898438 240.324219 C 152.339844 240.324219 150.265625 243.40625 150.265625 247.136719 C 150.265625 251.523438 153.640625 253.652344 158.144531 255.730469 C 162.53125 257.683594 168.214844 260.230469 168.214844 267.28125 C 168.214844 273.917969 162.652344 279.070312 155.179688 279.191406 C 153.046875 279.070312 151.035156 278.65625 149.613281 278.183594 C 148.128906 277.707031 147.128906 277.234375 146.472656 276.9375 C 145.9375 275.398438 145.289062 271.191406 144.695312 268.054688 Z M 145.585938 267.8125 "/>
<path style=" stroke:none;fill-rule:evenodd;fill:rgb(0%,42.352941%,51.372549%);fill-opacity:1;" d="M 173.605469 248.378906 C 173.605469 241.980469 173.132812 241.269531 168.390625 240.617188 L 168.390625 239.789062 L 194.105469 239.789062 C 194.164062 240.796875 194.460938 245.121094 194.757812 248.4375 L 193.867188 248.617188 C 193.039062 245.65625 192.03125 244.113281 191.199219 243.167969 C 190.3125 242.15625 188.53125 241.089844 184.03125 241.089844 L 180.121094 241.089844 C 178.460938 241.089844 178.34375 241.210938 178.34375 242.867188 L 178.34375 257.324219 L 184.328125 257.324219 C 189.421875 257.324219 189.601562 256.730469 190.785156 252.351562 L 191.675781 252.351562 L 191.675781 264.082031 L 190.785156 264.082031 C 190.195312 261.828125 189.835938 260.582031 189.007812 259.933594 C 188.179688 259.222656 186.875 259.105469 184.328125 259.105469 L 178.34375 259.105469 L 178.34375 270.480469 C 178.34375 273.859375 178.699219 275.28125 179.707031 276.050781 C 180.953125 277 183.085938 277 185.871094 277 C 189.246094 277 192.03125 276.050781 193.332031 274.632812 C 194.34375 273.5625 195.410156 271.550781 196.769531 268.824219 L 197.65625 269 C 197.363281 270.660156 196.0625 276.703125 195.585938 278.304688 L 167.800781 278.304688 L 167.800781 277.472656 C 173.132812 276.820312 173.605469 276.109375 173.605469 269.710938 Z M 203.347656 242.722656 C 203.347656 244.238281 202.089844 245.488281 200.550781 245.488281 C 199.015625 245.488281 197.753906 244.238281 197.753906 242.722656 C 197.753906 241.1875 199.015625 239.949219 200.550781 239.949219 C 202.089844 239.949219 203.347656 241.1875 203.347656 242.722656 Z M 198.253906 242.722656 C 198.253906 244.058594 199.273438 245.125 200.550781 245.125 C 201.820312 245.125 202.847656 244.058594 202.847656 242.722656 C 202.847656 241.394531 201.824219 240.308594 200.550781 240.308594 C 199.273438 240.308594 198.253906 241.394531 198.253906 242.722656 Z M 200.621094 241.1875 C 201.128906 241.1875 201.703125 241.328125 201.703125 241.992188 C 201.703125 242.363281 201.414062 242.652344 201.042969 242.769531 C 201.128906 242.917969 201.308594 243.242188 201.449219 243.457031 C 201.605469 243.683594 201.71875 243.828125 201.8125 243.949219 C 201.90625 244.070312 202.003906 244.121094 202.0625 244.164062 L 202.097656 244.179688 L 202.085938 244.285156 L 201.847656 244.273438 C 201.449219 244.261719 201.234375 244.152344 201.027344 243.839844 C 200.878906 243.59375 200.738281 243.339844 200.609375 243.082031 C 200.535156 242.960938 200.476562 242.902344 200.382812 242.902344 L 200.167969 242.902344 L 200.167969 243.621094 C 200.167969 243.992188 200.1875 244.058594 200.585938 244.117188 L 200.585938 244.261719 L 199.203125 244.261719 L 199.203125 244.117188 C 199.589844 244.058594 199.609375 243.992188 199.609375 243.621094 L 199.609375 241.820312 C 199.609375 241.433594 199.585938 241.375 199.203125 241.328125 L 199.203125 241.183594 L 200.621094 241.183594 Z M 200.167969 242.734375 L 200.453125 242.734375 C 200.574219 242.738281 200.695312 242.707031 200.800781 242.652344 C 201.050781 242.484375 201.089844 242.183594 201.089844 242.0625 C 201.089844 241.511719 200.71875 241.355469 200.464844 241.355469 C 200.164062 241.355469 200.164062 241.367188 200.164062 241.597656 L 200.164062 242.734375 Z M 47.871094 239.441406 C 47.871094 239.441406 48.191406 240.328125 48.292969 240.667969 L 49.019531 240.726562 Z M 47.871094 239.441406 "/>
</g>
</svg>
